<svg width="32" height="32" viewBox="0 0 32 32" fill="none" xmlns="http://www.w3.org/2000/svg">
  <rect width="32" height="32" rx="8" fill="url(#gradient)"/>
  <path d="M16 6C16 6 17.5 11.5 22 13C22 13 17.5 14.5 16 20C16 20 14.5 14.5 10 13C10 13 14.5 11.5 16 6Z" fill="white"/>
  <path d="M23 19C23 19 23.5 21 25 21.5C25 21.5 23.5 22 23 24C23 24 22.5 22 21 21.5C21 21.5 22.5 21 23 19Z" fill="white" fill-opacity="0.8"/>
  <defs>
    <linearGradient id="gradient" x1="0" y1="0" x2="32" y2="32" gradientUnits="userSpaceOnUse">
      <stop stop-color="#6366f1"/>
      <stop offset="1" stop-color="#a855f7"/>
    </linearGradient>
  </defs>
</svg>